<?xml version="1.0" standalone="no"?>
<!DOCTYPE svg PUBLIC "-//W3C//DTD SVG 20010904//EN"
 "http://www.w3.org/TR/2001/REC-SVG-20010904/DTD/svg10.dtd">
<svg version="1.0" xmlns="http://www.w3.org/2000/svg"
 width="288.000000pt" height="288.000000pt" viewBox="0 0 288.000000 288.000000"
 preserveAspectRatio="xMidYMid meet">
<metadata>
Created by potrace 1.11, written by Peter Selinger 2001-2013
</metadata>
<g transform="translate(0.000000,288.000000) scale(0.100000,-0.100000)"
fill="#000000" stroke="none">
<path d="M0 1440 l0 -1440 1440 0 1440 0 0 1440 0 1440 -1440 0 -1440 0 0
-1440z m2134 1030 l61 -29 -38 0 c-37 -1 -38 -1 -23 -23 22 -32 21 -71 -1 -64
-48 13 -294 58 -298 54 -3 -3 4 -25 15 -49 24 -54 26 -83 5 -75 -41 15 -309
76 -337 76 -5 0 -6 -18 -2 -45 l6 -45 -55 0 c-31 0 -59 -5 -63 -11 -8 -14 -20
-1 -27 31 -6 24 -5 25 43 22 l50 -4 0 45 0 44 98 -4 c70 -4 119 -13 180 -33
45 -15 82 -24 82 -21 0 4 -7 29 -16 55 -9 26 -14 49 -12 52 3 2 71 -9 153 -26
82 -17 150 -28 153 -25 3 2 -14 30 -38 61 -48 63 -45 64 64 14z m-241 -374
c-5 -24 -4 -24 104 -31 144 -10 147 -12 117 -71 -29 -57 -22 -69 42 -77 67 -7
70 -15 33 -83 -41 -76 -36 -94 26 -94 52 0 51 5 14 -95 -27 -71 -25 -85 11
-85 17 0 30 -4 30 -9 0 -5 -9 -53 -20 -106 -11 -53 -20 -113 -20 -132 0 -35 0
-35 35 -29 19 4 35 5 35 2 0 -3 -12 -60 -26 -127 -28 -135 -25 -150 26 -129
17 7 33 10 36 8 9 -10 -9 -116 -20 -114 -6 2 -8 1 -3 -1 12 -7 8 -33 -5 -33
-10 0 -10 -2 -1 -8 14 -9 6 -82 -9 -82 -5 0 -6 -5 -3 -10 7 -12 -22 -150 -41
-196 -7 -17 -33 -46 -58 -65 -26 -19 -63 -49 -84 -66 -35 -31 -45 -37 -57 -30
-2 1 -12 -8 -21 -21 -11 -16 -22 -21 -37 -17 -15 4 -18 3 -9 -3 10 -7 7 -13
-13 -26 -14 -9 -31 -14 -37 -10 -7 4 -8 3 -4 -4 3 -6 -3 -16 -14 -22 -11 -6
-20 -8 -20 -5 0 4 -8 -1 -17 -11 -41 -41 -339 -164 -363 -149 -5 3 -10 2 -10
-3 0 -5 -14 -12 -31 -14 -25 -4 -30 -2 -26 13 4 15 2 16 -14 6 -10 -6 -19 -15
-19 -19 0 -5 -4 -8 -10 -8 -5 0 -10 8 -10 18 0 14 -2 15 -10 2 -8 -13 -11 -13
-19 -1 -5 7 -14 11 -19 7 -18 -11 -105 15 -93 27 6 6 11 15 11 20 0 5 -7 2
-15 -6 -21 -21 -85 -2 -85 25 0 11 -5 16 -10 13 -6 -4 -8 -11 -4 -16 3 -6 -11
-3 -33 6 -21 9 -39 20 -41 25 -2 6 -10 10 -18 10 -26 0 -81 35 -76 49 3 9 -2
11 -15 7 -20 -6 -134 61 -192 113 -13 11 -28 21 -32 21 -5 0 -6 7 -2 16 4 10
1 14 -8 13 -19 -4 -59 19 -59 34 0 7 -15 19 -33 27 -24 11 -36 27 -48 62 -19
53 -37 127 -44 173 -2 17 -8 53 -14 80 -6 32 -6 51 0 53 6 3 5 9 -1 17 -6 8
-14 39 -17 69 -5 46 -3 56 9 56 31 0 37 23 22 80 -8 30 -17 85 -21 123 l-6 67
28 0 c25 0 27 2 20 28 -4 15 -10 63 -12 108 l-4 81 30 13 c45 18 41 47 -10 69
l-40 18 27 32 c14 17 46 43 70 57 24 14 44 29 44 34 0 4 -9 19 -20 32 -19 25
-19 25 3 45 31 29 55 40 105 48 52 8 62 27 33 65 l-21 29 66 21 c36 11 83 20
104 20 59 0 61 16 6 58 l-29 22 54 -1 c77 0 124 -11 151 -34 117 -101 144
-112 136 -54 l-5 29 41 -24 c23 -13 52 -27 66 -31 14 -4 45 -26 70 -48 49 -43
132 -87 167 -87 28 0 38 17 21 37 -12 15 -11 15 9 5 33 -18 63 -15 63 6 0 9
-9 34 -20 55 -11 20 -20 39 -20 41 0 3 20 -2 45 -11 25 -8 52 -12 60 -9 19 7
19 30 0 46 -8 7 -15 16 -15 21 0 11 53 39 105 55 22 7 41 13 41 13 1 1 -1 -10
-3 -23z m-1413 -1064 c0 -15 -6 -18 -29 -14 -44 6 -47 -15 -4 -35 l37 -18 21
-117 21 -117 -38 31 c-47 36 -83 97 -97 160 -13 58 -2 91 36 112 38 20 53 20
53 -2z m1951 -5 c33 -25 42 -56 29 -105 -6 -25 -18 -59 -27 -76 -20 -41 -85
-108 -93 -96 -8 13 26 214 37 217 56 20 69 48 21 48 -16 0 -28 5 -28 12 0 16
40 16 61 0z m-1256 -852 c28 -14 58 -25 67 -25 9 0 24 -7 32 -16 9 -8 19 -13
24 -10 8 5 114 -18 131 -28 6 -4 18 -2 28 3 24 13 116 36 127 33 5 -2 12 2 16
9 4 6 19 12 34 12 14 0 26 3 26 7 0 6 44 30 55 30 3 0 5 -40 5 -90 l0 -90
-305 0 -305 0 0 95 c0 52 3 95 8 95 4 0 30 -12 57 -25z"/>
<path d="M825 1644 c-52 -26 -47 -29 53 -30 70 0 107 -5 131 -17 72 -36 122
-6 65 40 -26 20 -39 23 -124 23 -66 0 -104 -5 -125 -16z"/>
<path d="M1793 1643 c-13 -9 -23 -26 -23 -39 0 -19 5 -24 25 -24 15 0 40 8 58
17 23 12 59 17 129 17 53 1 94 4 92 7 -2 4 -19 14 -38 23 -47 22 -211 22 -243
-1z"/>
<path d="M890 1413 c-8 -4 14 -12 49 -19 36 -8 77 -24 97 -39 38 -29 44 -21
14 18 -29 37 -114 58 -160 40z"/>
<path d="M1834 1400 c-22 -9 -67 -60 -60 -67 2 -3 18 5 35 18 17 12 61 30 98
40 l68 17 -60 0 c-33 1 -70 -3 -81 -8z"/>
<path d="M819 1365 c-139 -45 -196 -258 -98 -369 24 -28 89 -65 89 -52 0 2 -9
25 -21 51 -43 98 -11 218 71 260 48 25 180 13 180 -16 0 -9 59 -49 73 -49 18
0 4 51 -24 89 -55 76 -178 115 -270 86z"/>
<path d="M1844 1346 c-52 -24 -94 -68 -114 -120 -13 -36 -7 -42 24 -28 l25 11
-23 -34 c-13 -19 -27 -51 -30 -70 -10 -54 10 -138 40 -166 l26 -24 -24 -5
c-13 -3 -23 -12 -23 -20 0 -12 22 -16 114 -18 74 -2 118 1 127 9 24 20 5 29
-62 29 l-65 0 25 33 c40 52 51 115 32 180 -19 66 -56 101 -99 94 l-28 -4 24
24 c18 19 39 26 85 30 55 5 66 3 101 -20 23 -15 47 -44 60 -69 31 -65 28 -123
-14 -222 -7 -16 -5 -17 16 -11 33 10 67 43 90 87 21 42 26 148 8 195 -19 51
-62 104 -100 124 -55 28 -149 26 -215 -5z m32 -191 c20 -31 10 -67 -18 -63
-27 4 -63 52 -55 72 10 25 54 20 73 -9z m-15 -208 c-15 -15 -24 -18 -32 -10
-8 8 -4 15 12 26 31 22 46 9 20 -16z"/>
<path d="M964 1211 c-35 -21 -54 -73 -54 -145 0 -59 20 -106 55 -134 l28 -22
-67 0 c-53 0 -66 -3 -66 -15 0 -13 18 -15 120 -13 71 2 120 7 120 13 0 6 -16
11 -36 13 -36 3 -36 3 -14 19 74 52 79 218 9 277 -36 31 -54 32 -95 7z m92
-46 c19 -29 15 -59 -9 -63 -27 -5 -57 27 -57 60 0 23 4 28 25 28 15 0 31 -9
41 -25z m4 -195 c0 -12 -40 -34 -47 -26 -9 8 17 36 33 36 8 0 14 -4 14 -10z"/>
<path d="M550 960 c0 -5 5 -10 10 -10 6 0 10 5 10 10 0 6 -4 10 -10 10 -5 0
-10 -4 -10 -10z"/>
<path d="M560 920 c0 -5 5 -10 10 -10 6 0 10 5 10 10 0 6 -4 10 -10 10 -5 0
-10 -4 -10 -10z"/>
<path d="M580 890 c0 -5 5 -10 10 -10 6 0 10 5 10 10 0 6 -4 10 -10 10 -5 0
-10 -4 -10 -10z"/>
<path d="M605 860 c3 -5 8 -10 11 -10 2 0 4 5 4 10 0 6 -5 10 -11 10 -5 0 -7
-4 -4 -10z"/>
<path d="M575 840 c-3 -5 -1 -10 4 -10 6 0 11 5 11 10 0 6 -2 10 -4 10 -3 0
-8 -4 -11 -10z"/>
<path d="M575 790 c3 -5 8 -10 11 -10 2 0 4 5 4 10 0 6 -5 10 -11 10 -5 0 -7
-4 -4 -10z"/>
<path d="M655 790 c-3 -5 -2 -10 4 -10 5 0 13 5 16 10 3 6 2 10 -4 10 -5 0
-13 -4 -16 -10z"/>
<path d="M625 740 c3 -5 10 -10 16 -10 5 0 9 5 9 10 0 6 -7 10 -16 10 -8 0
-12 -4 -9 -10z"/>
<path d="M1404 714 c-8 -30 11 -77 29 -71 6 2 10 11 8 18 -3 8 -4 29 -4 47 2
39 -23 44 -33 6z"/>
<path d="M712 718 c5 -15 28 -18 29 -3 0 6 -7 12 -17 13 -10 3 -15 -1 -12 -10z"/>
<path d="M580 700 c0 -5 5 -10 10 -10 6 0 10 5 10 10 0 6 -4 10 -10 10 -5 0
-10 -4 -10 -10z"/>
<path d="M765 700 c-3 -5 -1 -10 4 -10 6 0 11 5 11 10 0 6 -2 10 -4 10 -3 0
-8 -4 -11 -10z"/>
<path d="M690 680 c0 -5 5 -10 10 -10 6 0 10 5 10 10 0 6 -4 10 -10 10 -5 0
-10 -4 -10 -10z"/>
<path d="M790 660 c0 -5 5 -10 10 -10 6 0 10 5 10 10 0 6 -4 10 -10 10 -5 0
-10 -4 -10 -10z"/>
<path d="M690 650 c0 -5 5 -10 10 -10 6 0 10 5 10 10 0 6 -4 10 -10 10 -5 0
-10 -4 -10 -10z"/>
<path d="M740 650 c0 -5 5 -10 10 -10 6 0 10 5 10 10 0 6 -4 10 -10 10 -5 0
-10 -4 -10 -10z"/>
<path d="M830 650 c0 -5 5 -10 11 -10 5 0 7 5 4 10 -3 6 -8 10 -11 10 -2 0 -4
-4 -4 -10z"/>
<path d="M770 630 c0 -5 5 -10 10 -10 6 0 10 5 10 10 0 6 -4 10 -10 10 -5 0
-10 -4 -10 -10z"/>
<path d="M870 610 c0 -5 5 -10 11 -10 5 0 7 5 4 10 -3 6 -8 10 -11 10 -2 0 -4
-4 -4 -10z"/>
<path d="M1610 610 c0 -5 5 -10 10 -10 6 0 10 5 10 10 0 6 -4 10 -10 10 -5 0
-10 -4 -10 -10z"/>
<path d="M640 600 c0 -5 5 -10 10 -10 6 0 10 5 10 10 0 6 -4 10 -10 10 -5 0
-10 -4 -10 -10z"/>
<path d="M820 600 c0 -5 5 -10 10 -10 6 0 10 5 10 10 0 6 -4 10 -10 10 -5 0
-10 -4 -10 -10z"/>
<path d="M1260 600 c8 -5 20 -10 25 -10 6 0 3 5 -5 10 -8 5 -19 10 -25 10 -5
0 -3 -5 5 -10z"/>
<path d="M1550 600 c0 -5 5 -10 11 -10 5 0 7 5 4 10 -3 6 -8 10 -11 10 -2 0
-4 -4 -4 -10z"/>
<path d="M1580 600 c0 -5 5 -10 10 -10 6 0 10 5 10 10 0 6 -4 10 -10 10 -5 0
-10 -4 -10 -10z"/>
<path d="M1695 600 c-3 -5 -1 -10 4 -10 6 0 11 5 11 10 0 6 -2 10 -4 10 -3 0
-8 -4 -11 -10z"/>
<path d="M740 590 c0 -5 5 -10 10 -10 6 0 10 5 10 10 0 6 -4 10 -10 10 -5 0
-10 -4 -10 -10z"/>
<path d="M1165 590 c3 -5 8 -10 11 -10 2 0 4 5 4 10 0 6 -5 10 -11 10 -5 0 -7
-4 -4 -10z"/>
<path d="M1305 590 c-3 -5 -1 -10 4 -10 6 0 11 5 11 10 0 6 -2 10 -4 10 -3 0
-8 -4 -11 -10z"/>
<path d="M1450 596 c0 -2 7 -9 15 -16 9 -7 15 -8 15 -2 0 5 -7 12 -15 16 -8 3
-15 4 -15 2z"/>
<path d="M2070 590 c0 -5 5 -10 11 -10 5 0 7 5 4 10 -3 6 -8 10 -11 10 -2 0
-4 -4 -4 -10z"/>
<path d="M710 579 c0 -5 5 -7 10 -4 6 3 10 8 10 11 0 2 -4 4 -10 4 -5 0 -10
-5 -10 -11z"/>
<path d="M780 580 c0 -5 4 -10 9 -10 6 0 13 5 16 10 3 6 -1 10 -9 10 -9 0 -16
-4 -16 -10z"/>
<path d="M1025 580 c3 -5 8 -10 11 -10 2 0 4 5 4 10 0 6 -5 10 -11 10 -5 0 -7
-4 -4 -10z"/>
<path d="M1395 580 c3 -5 8 -10 11 -10 2 0 4 5 4 10 0 6 -5 10 -11 10 -5 0 -7
-4 -4 -10z"/>
<path d="M1422 570 c0 -14 2 -19 5 -12 2 6 2 18 0 25 -3 6 -5 1 -5 -13z"/>
<path d="M1820 580 c-8 -5 -10 -10 -5 -10 6 0 17 5 25 10 8 5 11 10 5 10 -5 0
-17 -5 -25 -10z"/>
<path d="M855 560 c-3 -5 -1 -10 4 -10 6 0 11 5 11 10 0 6 -2 10 -4 10 -3 0
-8 -4 -11 -10z"/>
<path d="M910 560 c0 -5 5 -10 10 -10 6 0 10 5 10 10 0 6 -4 10 -10 10 -5 0
-10 -4 -10 -10z"/>
<path d="M1155 560 c3 -5 8 -10 11 -10 2 0 4 5 4 10 0 6 -5 10 -11 10 -5 0 -7
-4 -4 -10z"/>
<path d="M1395 541 c-3 -6 -11 -9 -16 -6 -5 4 -9 1 -9 -4 0 -13 10 -14 30 -1
8 5 12 12 8 15 -3 4 -9 1 -13 -4z"/>
<path d="M997 533 c-4 -3 -7 -11 -7 -17 0 -6 5 -5 12 2 6 6 9 14 7 17 -3 3 -9
2 -12 -2z"/>
<path d="M1653 527 c-15 -28 -107 -46 -265 -54 -120 -5 -148 -9 -148 -21 0
-12 25 -14 168 -9 217 6 283 25 264 77 -8 21 -10 22 -19 7z"/>
<path d="M1870 530 c0 -5 5 -10 11 -10 5 0 7 5 4 10 -3 6 -8 10 -11 10 -2 0
-4 -4 -4 -10z"/>
<path d="M835 520 c3 -5 8 -10 11 -10 2 0 4 5 4 10 0 6 -5 10 -11 10 -5 0 -7
-4 -4 -10z"/>
<path d="M1765 520 c-3 -5 -1 -10 4 -10 6 0 11 5 11 10 0 6 -2 10 -4 10 -3 0
-8 -4 -11 -10z"/>
<path d="M710 510 c0 -5 5 -10 10 -10 6 0 10 5 10 10 0 6 -4 10 -10 10 -5 0
-10 -4 -10 -10z"/>
<path d="M760 510 c0 -5 5 -10 10 -10 6 0 10 5 10 10 0 6 -4 10 -10 10 -5 0
-10 -4 -10 -10z"/>
<path d="M920 510 c0 -5 5 -10 11 -10 5 0 7 5 4 10 -3 6 -8 10 -11 10 -2 0 -4
-4 -4 -10z"/>
<path d="M860 500 c0 -5 5 -10 10 -10 6 0 10 5 10 10 0 6 -4 10 -10 10 -5 0
-10 -4 -10 -10z"/>
<path d="M885 460 c-3 -5 1 -10 10 -10 9 0 13 5 10 10 -3 6 -8 10 -10 10 -2 0
-7 -4 -10 -10z"/>
<path d="M920 460 c0 -5 5 -10 10 -10 6 0 10 5 10 10 0 6 -4 10 -10 10 -5 0
-10 -4 -10 -10z"/>
<path d="M810 450 c0 -5 5 -10 10 -10 6 0 10 5 10 10 0 6 -4 10 -10 10 -5 0
-10 -4 -10 -10z"/>
<path d="M1145 450 c-3 -5 -2 -10 4 -10 5 0 13 5 16 10 3 6 2 10 -4 10 -5 0
-13 -4 -16 -10z"/>
<path d="M1715 450 c3 -5 8 -10 11 -10 2 0 4 5 4 10 0 6 -5 10 -11 10 -5 0 -7
-4 -4 -10z"/>
<path d="M855 440 c3 -5 8 -10 11 -10 2 0 4 5 4 10 0 6 -5 10 -11 10 -5 0 -7
-4 -4 -10z"/>
<path d="M980 420 c0 -5 5 -10 10 -10 6 0 10 5 10 10 0 6 -4 10 -10 10 -5 0
-10 -4 -10 -10z"/>
<path d="M925 410 c-4 -6 -4 -10 -1 -10 2 0 11 -3 20 -6 9 -3 16 -2 16 4 0 14
-28 23 -35 12z"/>
<path d="M1710 401 c0 -6 4 -13 10 -16 6 -3 7 1 4 9 -7 18 -14 21 -14 7z"/>
<path d="M870 390 c0 -5 5 -10 10 -10 6 0 10 5 10 10 0 6 -4 10 -10 10 -5 0
-10 -4 -10 -10z"/>
<path d="M1105 380 c3 -5 11 -10 16 -10 6 0 7 5 4 10 -3 6 -11 10 -16 10 -6 0
-7 -4 -4 -10z"/>
<path d="M920 372 c0 -12 19 -26 26 -19 2 2 -2 10 -11 17 -9 8 -15 8 -15 2z"/>
<path d="M990 370 c0 -5 5 -10 11 -10 5 0 7 5 4 10 -3 6 -8 10 -11 10 -2 0 -4
-4 -4 -10z"/>
<path d="M1070 360 c0 -5 5 -10 10 -10 6 0 10 5 10 10 0 6 -4 10 -10 10 -5 0
-10 -4 -10 -10z"/>
<path d="M1172 344 c1 -16 7 -32 13 -36 6 -5 5 -11 -5 -17 -8 -6 -11 -13 -7
-17 4 -4 15 0 25 9 13 13 14 20 5 25 -7 4 -14 18 -16 30 -5 34 -17 39 -15 6z"/>
<path d="M1715 360 c3 -5 8 -10 11 -10 2 0 4 5 4 10 0 6 -5 10 -11 10 -5 0 -7
-4 -4 -10z"/>
<path d="M1020 340 c0 -5 5 -10 10 -10 6 0 10 5 10 10 0 6 -4 10 -10 10 -5 0
-10 -4 -10 -10z"/>
<path d="M1110 320 c0 -11 5 -20 10 -20 6 0 10 9 10 20 0 11 -4 20 -10 20 -5
0 -10 -9 -10 -20z"/>
<path d="M1040 300 c0 -5 5 -10 11 -10 5 0 7 5 4 10 -3 6 -8 10 -11 10 -2 0
-4 -4 -4 -10z"/>
<path d="M1140 295 c0 -8 5 -15 10 -15 6 0 10 7 10 15 0 8 -4 15 -10 15 -5 0
-10 -7 -10 -15z"/>
<path d="M1090 275 c0 -8 2 -15 4 -15 2 0 11 -3 20 -6 9 -3 16 -1 16 6 0 6 -4
8 -10 5 -5 -3 -10 1 -10 9 0 9 -4 16 -10 16 -5 0 -10 -7 -10 -15z"/>
<path d="M1205 271 c-3 -5 -1 -12 4 -15 5 -3 11 1 15 9 6 16 -9 21 -19 6z"/>
<path d="M1237 258 c-7 -23 3 -42 10 -21 2 7 11 9 19 6 8 -3 14 1 14 10 0 8
-7 18 -16 21 -22 8 -21 9 -27 -16z"/>
<path d="M1620 270 c0 -5 5 -10 10 -10 6 0 10 5 10 10 0 6 -4 10 -10 10 -5 0
-10 -4 -10 -10z"/>
<path d="M1650 270 c0 -5 5 -10 10 -10 6 0 10 5 10 10 0 6 -4 10 -10 10 -5 0
-10 -4 -10 -10z"/>
<path d="M1595 260 c-3 -5 -1 -10 4 -10 6 0 11 5 11 10 0 6 -2 10 -4 10 -3 0
-8 -4 -11 -10z"/>
<path d="M1290 250 c0 -5 5 -10 11 -10 5 0 7 5 4 10 -3 6 -8 10 -11 10 -2 0
-4 -4 -4 -10z"/>
<path d="M1355 250 c3 -5 8 -10 11 -10 2 0 4 5 4 10 0 6 -5 10 -11 10 -5 0 -7
-4 -4 -10z"/>
<path d="M1200 225 c0 -8 5 -15 10 -15 6 0 10 7 10 15 0 8 -4 15 -10 15 -5 0
-10 -7 -10 -15z"/>
<path d="M1395 220 c3 -5 11 -10 16 -10 6 0 7 5 4 10 -3 6 -11 10 -16 10 -6 0
-7 -4 -4 -10z"/>
<path d="M1280 210 c0 -5 9 -10 20 -10 11 0 23 -7 26 -15 6 -15 24 -21 24 -7
-1 24 -70 56 -70 32z"/>
<path d="M1600 216 c0 -2 7 -7 16 -10 8 -3 12 -2 9 4 -6 10 -25 14 -25 6z"/>
<path d="M1370 190 c0 -5 5 -10 10 -10 6 0 10 5 10 10 0 6 -4 10 -10 10 -5 0
-10 -4 -10 -10z"/>
</g>
</svg>
